<svg height="495pt" viewBox="0 -52 495.99311 495" width="495pt" xmlns="http://www.w3.org/2000/svg"><path d="m239.921875 200.480469h-216v167.921875.160156c.078125 13.199219 10.796875 23.839844 24 23.839844h328c13.199219 0 23.917969-10.640625 24-23.839844 0-.082031 0-.082031 0-.160156v-167.921875zm0 0" fill="#545c66"/><path d="m415.910156 208.480469h-407.902344c-4.421874 0-7.9999995-3.574219-7.9999995-8s3.5781255-8 7.9999995-8h407.902344c4.425782 0 8 3.574219 8 8s-3.574218 8-8 8zm0 0" fill="#656d78"/><path d="m247.921875 40.496094h32v15.984375h-32zm0 0" fill="#ccd1d9"/><path d="m143.921875 40.496094h32v15.984375h-32zm0 0" fill="#ccd1d9"/><path d="m279.921875 8.496094v32h-136v-32c0-4.40625 3.589844-8 8-8h120c4.476563 0 8 3.59375 8 8zm0 0" fill="#656d78"/><path d="m112.039062 40.496094c.023438 0 .039063 3.59375.039063 8v8c0 4.390625-3.597656 8-8 8h-40.078125c-4.398438 0-8-3.609375-8-8v-8c0-4.40625 3.601562-8 8-8h40zm0 0" fill="#ccd1d9"/><path d="m359.921875 40.496094c4.398437 0 8 3.59375 8 8v8c0 4.390625-3.601563 8-8 8h-40c-4.402344 0-8-3.609375-8-8v-8c0-4.40625 3.597656-8 8-8zm0 0" fill="#ccd1d9"/><path d="m344.015625 240.402344 24 80h-48zm0 0" fill="#545c66"/><path d="m408 200.480469h-408v-104c0-22.078125 17.921875-40 40-40h343.921875c22.078125 0 40 17.921875 40 40v104zm0 0" fill="#656d78"/><g fill="#f6bb42"><path d="m400.007812 392.382812c-4.421874 0-8-3.574218-8-8v-152.015624c0-4.421876 3.578126-8 8-8 4.425782 0 8 3.578124 8 8v152.015624c0 4.425782-3.574218 8-8 8zm0 0"/><path d="m312.023438 328.367188c-.757813 0-1.527344-.109376-2.296876-.328126-4.230468-1.277343-6.628906-5.734374-5.367187-9.964843l24-80.019531c1.265625-4.230469 5.71875-6.621094 9.960937-5.359376 4.230469 1.265626 6.632813 5.722657 5.367188 9.953126l-24 80.015624c-1.039062 3.472657-4.214844 5.703126-7.664062 5.703126zm0 0"/><path d="m360.023438 328.367188c-3.449219 0-6.625-2.230469-7.664063-5.703126l-24-80.015624c-1.261719-4.230469 1.136719-8.6875 5.367187-9.953126 4.25-1.261718 8.699219 1.128907 9.960938 5.359376l24 80.019531c1.265625 4.230469-1.136719 8.6875-5.367188 9.964843-.769531.226563-1.535156.328126-2.296874.328126zm0 0"/><path d="m439.992188 328.367188c-.761719 0-1.527344-.109376-2.296876-.328126-4.230468-1.277343-6.632812-5.734374-5.367187-9.964843l24-80.019531c1.265625-4.230469 5.703125-6.621094 9.960937-5.359376 4.230469 1.265626 6.632813 5.722657 5.367188 9.953126l-24 80.015624c-1.039062 3.472657-4.214844 5.703126-7.664062 5.703126zm0 0"/><path d="m487.992188 328.367188c-3.449219 0-6.625-2.230469-7.664063-5.703126l-24-80.015624c-1.265625-4.230469 1.136719-8.6875 5.367187-9.953126 4.242188-1.261718 8.695313 1.128907 9.960938 5.359376l24 80.019531c1.265625 4.230469-1.136719 8.6875-5.367188 9.964843-.769531.226563-1.535156.328126-2.296874.328126zm0 0"/></g><path d="m239.921875 200.480469v16 32c0 4.40625-3.601563 8-8 8h-40c-4.402344 0-8-3.59375-8-8v-32c0-4.390625 0-11.59375 0-16v-32c0-4.390625 3.597656-8 8-8h40c4.398437 0 8 3.609375 8 8zm0 0" fill="#e6e9ed"/><path d="m211.953125 232.449219c-4.425781 0-8-3.578125-8-8v-32c0-4.425781 3.574219-8 8-8 4.421875 0 8 3.574219 8 8v32c0 4.421875-3.578125 8-8 8zm0 0" fill="#ccd1d9"/><path d="m463.992188 248.351562h-127.96875c-4.421876 0-8-3.574218-8-8 0-4.421874 3.578124-8 8-8h127.96875c4.421874 0 8 3.578126 8 8 0 4.425782-3.578126 8-8 8zm0 0" fill="#ffce54"/><path d="m447.992188 392.382812h-95.96875c-4.421876 0-8-3.574218-8-8 0-4.421874 3.578124-8 8-8h95.96875c4.421874 0 8 3.578126 8 8 0 4.425782-3.578126 8-8 8zm0 0" fill="#ffce54"/><path d="m360.023438 312.367188h-48c-4.421876 0-8 3.578124-8 8 0 17.65625 14.351562 32 32 32 17.648437 0 32-14.34375 32-32 0-4.414063-3.574219-8-8-8zm0 0" fill="#ffce54"/><path d="m487.992188 312.367188h-48c-4.425782 0-8 3.578124-8 8 0 17.65625 14.351562 32 32 32 17.648437 0 32-14.34375 32-32 0-4.414063-3.578126-8-8-8zm0 0" fill="#ffce54"/></svg>