<svg id="Capa_1" enable-background="new 0 0 497 497" height="512" viewBox="0 0 497 497" width="512" xmlns="http://www.w3.org/2000/svg"><g><g><g><g><path d="m3 139.141c.011 1.829.344 3.652.993 5.384l8.366 22.975c2.664 7.103 10.051 11.261 17.506 9.851l83.277-16.505c6.364-1.203 11.322-6.214 12.459-12.59l2.88-2.933 5.667-31.774-4.618-2.556-124.398 24.169z" fill="#ffa442"/><path d="m27.865 179.351 3.961-.749 83.316-15.756c6.364-1.203 11.322-6.214 12.459-12.59l.583-3.271.296-1.661-100.625 19.029c-2.389.452-4.757-.881-5.611-3.157l-6.252-16.671c-.995-2.653-1.258-5.457-.748-8.232l-3.314-3.179-9.972 2.654-1.956 3.441c.025 1.834.347 3.596.991 5.317l9.366 24.975c2.489 6.959 10.263 11.339 17.506 9.85z" fill="#ff8a3c"/></g><g><path d="m367.852 113.55 4.547 33.707c1.137 6.376 6.095 11.386 12.459 12.59l79.876 15.908c7.454 1.41 17.243-.151 19.907-7.254l2.644-.717 8.722-23.259c.642-1.712.975-3.515.993-5.323l-2.903-4.311-126.712-24.474z" fill="#ffa442"/><path d="m387.42 148.898c-2.025-.383-3.607-1.969-3.986-3.994l-3.666-19.606c-.607-3.402-1.232-6.379-2.18-8.93l-3.196-3.084-10.322-1.501-1.22 1.767 6.099 34.197c.558 7.191 5.576 13.868 12.907 15.1l87.277 16.505c7.454 1.41 14.842-2.748 17.506-9.851l.644-1.717z" fill="#ff8a3c"/></g><g><path d="m364.585 111.783c-.885-4.961-6.932-6.807-11.972-6.807h-2.921l-2.32-3-67.488-.08-1.853 3.08h-59.064l-2.234-3-67.41.913-2.016 2.087h-2.921c-5.039 0-9.354 3.613-10.239 8.574l-125.66 24.035c-.008-1.285-.575-12.314-.264-13.575l7.66-28.34c2.959-11.986 8.99-36.512 19.691-41.904 3.309-1.667 6.848-2.817 10.592-3.562l62.404-12.424c46.078-9.174 92.947-13.794 139.929-13.794 46.982 0 93.851 4.62 139.929 13.794l62.404 12.424c15.852 3.156 28.449 15.193 32.324 30.884l13.388 54.221c.316 1.281.467 2.589.454 3.894l-119.41-22.834z" fill="#ffbf54"/><g fill="#ffa442"><path d="m15.245 136.293 20.329-82.527s-16.372 7.053-21.732 27.322l-13.387 54.22c-.322 1.305-.472 2.571-.453 3.901z"/><path d="m377.59 116.367c-2.814-7.577-8.476-11.392-24.977-11.392 5.04 0 9.354 3.613 10.239 8.574z"/><path d="m203.968 70.622h-41.661c-8.284 0-15 6.716-15 15v19.354h71.661v-19.354c0-8.284-6.716-15-15-15z"/><path d="m334.693 70.622h-41.661c-8.284 0-15 6.716-15 15v19.354h71.661v-19.354c0-8.284-6.716-15-15-15z"/></g></g></g><g><path d="m326.372 85.622h-18.47l-4.68 2c-4.595 0-8.32 3.725-8.32 8.32l1 32.553c0 4.595-6.725 8.32-11.32 8.32h-72.164c-4.595 0-8.32-3.725-8.32-8.32v-34.553c0-4.595-3.725-8.32-8.32-8.32h-18.47l-4.68 2c-4.595 0-8.32 3.725-8.32 8.32v83.708h167.385l3-15v-70.708c0-4.595-3.726-8.32-8.321-8.32z" fill="#ffbf54"/><g fill="#ffa442"><path d="m307.902 126.815v-41.193h-6.68c-4.595 0-8.32 3.725-8.32 8.32v34.553c-.001.553-.059 3.52-2.46 5.903-2.373 2.356-5.297 2.416-5.86 2.417h13.32c5.523 0 10-4.477 10-10z"/><path d="m177.307 159.65v-74.028h-6.68c-4.595 0-8.32 3.725-8.32 8.32v88.708h172.385v-18h-152.385c-2.761 0-5-2.238-5-5z"/></g></g></g><g><path d="m441.809 381.992v75.393c0 .211-.014.42-.022.629-.33 8.34-19.951 12.719-28.372 12.719l-340.595.281c-8.632 0-15.629-6.997-15.629-15.629l1-73.393c0-2.017.39-4.014 1.149-5.883l73.394-184.1c2.394-5.892 8.12-9.746 14.479-9.746l3.946-2.613h199.16c6.36 0 12.086 3.854 14.479 9.746l75.86 186.713c.76 1.869 1.151 3.867 1.151 5.883z" fill="#ffbf54"/><path d="m70.191 453.014v-70.112c0-.636.122-1.267.358-1.858l80.611-201.394h-4.48c-6.36 0-12.086 3.854-14.48 9.746l-75.86 186.713c-.759 1.868-1.149 3.866-1.149 5.883v75.393c-.117 8.416 7.213 15.745 15.629 15.629h355.36c8.419 0 15.274-6.662 15.607-15h-366.596c-2.762 0-5-2.238-5-5z" fill="#ffa442"/></g><g><g><path d="m358.2 326.332c0-60.586-49.114-109.7-109.7-109.7-26.473 0-50.755 9.378-69.708 24.992-24.421 20.12-37.992 68.893-37.992 84.708 0 60.586 47.114 107.7 107.7 107.7 7.946 0 64.558-13.576 84.679-37.956 15.649-18.963 25.021-43.237 25.021-69.744z" fill="#f7f3f1"/><path d="m263.5 421.032c-60.586 0-109.7-49.114-109.7-109.7 0-26.473 9.378-50.756 24.992-69.708-24.422 20.12-39.992 50.595-39.992 84.708 0 60.586 49.114 109.7 109.7 109.7 34.112 0 64.559-15.535 84.679-39.956-18.953 15.614-43.206 24.956-69.679 24.956z" fill="#eae2df"/></g><g><path d="m269.5 326.332c0-11.598-9.402-21-21-21-2.814 0-5.497.558-7.949 1.562-7.656 3.134-11.902 18.863-11.902 19.438 0 11.598 8.253 19.851 19.851 19.851 2.028 0 16.304-4.247 19.438-11.902 1.003-2.452 1.562-5.135 1.562-7.949z" fill="#eae2df"/><path d="m259.986 335.847c-11.598 0-21-9.402-21-21 0-2.814.561-5.499 1.565-7.952-7.655 3.134-13.051 10.654-13.051 19.438 0 11.598 9.402 21 21 21 8.784 0 16.304-5.396 19.438-13.051-2.453 1.004-5.138 1.565-7.952 1.565z" fill="#ddd3ce"/></g><g><path d="m266 262.602c0-9.665-7.835-17.5-17.5-17.5-1.693 0-3.312.243-4.86.691-7.291 2.112-11.443 14.954-11.443 16.809 0 9.665 6.639 16.304 16.304 16.304 1.96 0 14.658-4.153 16.797-11.402.462-1.573.702-3.179.702-4.902z" fill="#eae2df"/><path d="m260.464 268.138c-9.665 0-17.5-7.835-17.5-17.5 0-1.682.232-3.305.675-4.844-7.307 2.102-12.64 8.825-12.64 16.809 0 9.665 7.835 17.5 17.5 17.5 7.983 0 14.695-5.292 16.797-12.599-1.539.442-3.15.634-4.832.634z" fill="#ddd3ce"/></g><g><path d="m266 390.063c0-9.665-7.835-17.5-17.5-17.5-1.693 0-3.312.243-4.86.691-7.291 2.112-11.443 14.954-11.443 16.809 0 9.665 6.639 16.304 16.304 16.304 1.96 0 14.658-4.153 16.797-11.402.462-1.574.702-3.179.702-4.902z" fill="#eae2df"/><path d="m260.464 395.598c-9.665 0-17.5-7.835-17.5-17.5 0-1.682.232-3.305.675-4.844-7.307 2.102-12.64 8.825-12.64 16.809 0 9.665 7.835 17.5 17.5 17.5 7.983 0 14.695-5.292 16.797-12.599-1.539.443-3.15.634-4.832.634z" fill="#ddd3ce"/></g><g><path d="m321.192 294.467c0-9.665-7.835-17.5-17.5-17.5-1.693 0-3.312.243-4.86.691-7.291 2.112-11.443 14.954-11.443 16.809 0 9.665 6.639 16.304 16.303 16.304 1.96 0 14.658-4.153 16.797-11.402.464-1.573.703-3.179.703-4.902z" fill="#eae2df"/><path d="m315.656 300.003c-9.665 0-17.5-7.835-17.5-17.5 0-1.682.232-3.305.675-4.844-7.307 2.102-12.64 8.825-12.64 16.809 0 9.665 7.835 17.5 17.5 17.5 7.983 0 14.695-5.292 16.797-12.599-1.539.442-3.15.634-4.832.634z" fill="#ddd3ce"/></g><g><path d="m210.808 294.467c0-9.665-7.835-17.5-17.5-17.5-1.693 0-3.312.243-4.86.691-7.291 2.112-11.443 14.954-11.443 16.809 0 9.665 6.639 16.304 16.304 16.304 1.96 0 14.658-4.153 16.797-11.402.462-1.573.702-3.179.702-4.902z" fill="#eae2df"/><path d="m205.272 300.003c-9.665 0-17.5-7.835-17.5-17.5 0-1.682.232-3.305.675-4.844-7.307 2.102-12.64 8.825-12.64 16.809 0 9.665 7.835 17.5 17.5 17.5 7.983 0 14.695-5.292 16.797-12.599-1.539.442-3.15.634-4.832.634z" fill="#ddd3ce"/></g><g><path d="m321.192 358.195c0-9.665-7.835-17.5-17.5-17.5-1.693 0-3.312.243-4.86.691-7.291 2.112-11.443 14.954-11.443 16.809 0 9.665 6.639 16.304 16.303 16.304 1.96 0 14.658-4.153 16.797-11.402.464-1.573.703-3.179.703-4.902z" fill="#eae2df"/><path d="m315.656 363.731c-9.665 0-17.5-7.835-17.5-17.5 0-1.682.232-3.305.675-4.844-7.307 2.102-12.64 8.825-12.64 16.809 0 9.665 7.835 17.5 17.5 17.5 7.983 0 14.695-5.292 16.797-12.599-1.539.442-3.15.634-4.832.634z" fill="#ddd3ce"/></g><g><path d="m210.808 358.195c0-9.665-7.835-17.5-17.5-17.5-1.693 0-3.312.243-4.86.691-7.291 2.112-11.443 14.954-11.443 16.809 0 9.665 6.639 16.304 16.304 16.304 1.96 0 14.658-4.153 16.797-11.402.462-1.573.702-3.179.702-4.902z" fill="#eae2df"/><path d="m205.272 363.731c-9.665 0-17.5-7.835-17.5-17.5 0-1.682.232-3.305.675-4.844-7.307 2.102-12.64 8.825-12.64 16.809 0 9.665 7.835 17.5 17.5 17.5 7.983 0 14.695-5.292 16.797-12.599-1.539.442-3.15.634-4.832.634z" fill="#ddd3ce"/></g></g><path d="m132.009 437.632h-43.909c-4.143 0-7.5-3.358-7.5-7.5s3.357-7.5 7.5-7.5h43.908c4.143 0 7.5 3.358 7.5 7.5s-3.357 7.5-7.499 7.5z" fill="#ffa442"/></g></svg>