<svg fill="none" height="512" viewBox="0 0 24 24" width="512" xmlns="http://www.w3.org/2000/svg"><g clip-rule="evenodd" fill-rule="evenodd"><path d="m8.62238 2.51c-.22946-.08531-.47888-.13229-.7437-.13229-1.31502 0-2.25 1.15827-2.25 2.41667v7.42722l-1.50018-1.7387-.01037-.0117c-.88372-.98194-2.35254-.98194-3.236261 0-.8359929.9288-.8424419 2.4014-.019347 3.3387l2.418118 3.1039 1.40608 1.9114c1.40903 2.4317 3.86094 3.9414 6.53458 3.9414h.1574c4.3526 0 7.75-3.8943 7.75-8.5278v-7.2222c0-1.2584-.935-2.41667-2.25-2.41667-.2667 0-.5177.04763-.7485.13406v4.28161c0 .13808-.1119.25-.25.25-.138 0-.25-.11192-.25-.25v-5.73763c-.4006-.53864-1.0168-.90026-1.7515-.90026-.2679 0-.52.04807-.7517.13527v7.22237c0 .13807-.1119.25-.25.25s-.25-.11193-.25-.25v-7.57283c-.4007-.53624-1.0155-.89592-1.7483-.89592-.7377 0-1.35578.36448-1.75632.90666v8.49964c0 .138-.11193.25-.25.25s-.25-.112-.25-.25z" fill="#ffcc80"/><path d="m19.0652 12.9649c-.6449-1.2898-2.4856-1.2898-3.1305 0l-3.882 7.764c-.5818 1.1635.2644 2.5326 1.5653 2.5326h7.7639c1.3009 0 2.147-1.3691 1.5653-2.5326z" fill="#ffc107"/><path d="m17.5 15.2615c.4142 0 .75.3358.75.75v2c0 .4142-.3358.75-.75.75s-.75-.3358-.75-.75v-2c0-.4142.3358-.75.75-.75z" fill="#354d58"/><path d="m17.5 19.2615c.4142 0 .75.3358.75.75v.5c0 .4142-.3358.75-.75.75s-.75-.3358-.75-.75v-.5c0-.4142.3358-.75.75-.75z" fill="#354d58"/></g><path d="m9.37868 10.3333v-6.66663c0-.92048.67162-1.66667 1.50002-1.66667s1.5.74619 1.5 1.66667v6.66663m-3.00002 1.1111v-6.66662c0-.92048-.67157-1.66667-1.5-1.66667s-1.5.74619-1.5 1.66667v9.44442l-2.81802-3.2659c-.58579-.6509-1.53553-.6509-2.12132 0-.585787.6509-.585787 1.7061 0 2.357l2.43932 3.1311 1.43701 1.9535c1.06297 1.856 2.77098 3.1064 4.68433 3.4829m2.3787-17.10302c0-.92048.6716-1.66667 1.5-1.66667s1.5.74619 1.5 1.66667v4.22222m0-2c0-.92047.6716-1.66667 1.5-1.66667s1.5.7462 1.5 1.66667v3" stroke="#000" stroke-linecap="round" stroke-linejoin="round" stroke-width="1.5"/><path d="m16.6056 13.2889c.3685-.7371 1.4203-.7371 1.7888 0l3.882 7.7639c.3324.6649-.1511 1.4472-.8944 1.4472h-7.764c-.7433 0-1.2268-.7823-.8944-1.4472z" stroke="#000" stroke-linecap="round" stroke-linejoin="round" stroke-width="1.5"/><path d="m17.5 16v2" stroke="#000" stroke-linecap="round" stroke-linejoin="round" stroke-width="1.5"/><path d="m17.5 20v.5" stroke="#000" stroke-linecap="round" stroke-linejoin="round" stroke-width="1.5"/></svg>